<svg xmlns:xlink="http://www.w3.org/1999/xlink" xmlns="http://www.w3.org/2000/svg" width="392" height="696" viewBox="0 0 392 696" fill="none">
<g clip-path="url(#clip0_862_16868)">
<path d="M-32.7114 482.813C-43.2629 485.308 -52.9827 491.916 -58.2929 501.37C-63.6032 510.825 -64.0488 523.089 -58.563 532.437C-53.0773 541.785 -41.4946 547.453 -30.9092 545.116C-22.91 543.353 -17.5773 538.34 -10.3542 532.186C-13.1276 541.174 -16.1567 550.597 -16.407 560.021C-16.5905 566.89 -15.1336 574.342 -12.0329 580.606C-8.33049 588.075 -0.0511327 591.532 8.03143 590.37C16.3731 589.169 23.1295 583.907 27.3307 576.713C32.2741 568.252 34.232 558.148 35.1083 548.502C36.2978 549.902 40.3902 554.248 41.4304 555.267C44.0693 557.862 46.8521 560.325 49.8573 562.482C55.4868 566.523 62.1635 569.725 69.2552 569.377C84.449 568.639 94.7941 552.951 97.7396 539.436C101.311 523.047 96.8522 503.711 82.7826 494.581" stroke="#042F1A" stroke-width="3" stroke-linecap="round" stroke-linejoin="round"/>
<path d="M182.029 380.22C191.718 369.751 203.17 358.47 202.443 343.073C202.024 334.164 197.14 325.872 191.131 319.519C186.475 314.597 178.587 307.259 171.343 311.521C169.14 312.815 167.119 315.103 167.518 317.625C168.296 322.483 175.272 323.241 179.11 322.583C183.853 321.77 188.173 318.78 190.711 314.708C199.556 300.524 195.543 286.916 183.747 276" stroke="#042F1A" stroke-width="3" stroke-linecap="round" stroke-linejoin="round"/>
<path d="M131.54 228C131.447 228 131.372 227.972 131.316 227.916C131.26 227.851 131.232 227.771 131.232 227.678V218.522C131.232 218.429 131.26 218.354 131.316 218.298C131.372 218.233 131.447 218.2 131.54 218.2H132.24C132.343 218.2 132.422 218.228 132.478 218.284C132.534 218.34 132.562 218.419 132.562 218.522V227.678C132.562 227.771 132.529 227.851 132.464 227.916C132.408 227.972 132.333 228 132.24 228H131.54ZM135.173 228C135.079 228 135 227.972 134.935 227.916C134.879 227.851 134.851 227.771 134.851 227.678V221.042C134.851 220.949 134.879 220.874 134.935 220.818C135 220.753 135.079 220.72 135.173 220.72H135.761C135.854 220.72 135.929 220.753 135.985 220.818C136.041 220.874 136.069 220.949 136.069 221.042V221.518C136.573 220.893 137.254 220.58 138.113 220.58C139.139 220.58 139.867 221.009 140.297 221.868C140.521 221.476 140.838 221.163 141.249 220.93C141.669 220.697 142.135 220.58 142.649 220.58C143.414 220.58 144.039 220.841 144.525 221.364C145.01 221.887 145.253 222.643 145.253 223.632V227.678C145.253 227.771 145.22 227.851 145.155 227.916C145.099 227.972 145.024 228 144.931 228H144.329C144.235 228 144.156 227.972 144.091 227.916C144.035 227.851 144.007 227.771 144.007 227.678V223.758C144.007 223.011 143.853 222.479 143.545 222.162C143.237 221.835 142.831 221.672 142.327 221.672C141.879 221.672 141.491 221.84 141.165 222.176C140.847 222.503 140.689 223.03 140.689 223.758V227.678C140.689 227.771 140.656 227.851 140.591 227.916C140.535 227.972 140.46 228 140.367 228H139.751C139.657 228 139.578 227.972 139.513 227.916C139.457 227.851 139.429 227.771 139.429 227.678V223.758C139.429 223.021 139.265 222.489 138.939 222.162C138.621 221.835 138.225 221.672 137.749 221.672C137.301 221.672 136.913 221.835 136.587 222.162C136.269 222.489 136.111 223.016 136.111 223.744V227.678C136.111 227.771 136.078 227.851 136.013 227.916C135.957 227.972 135.882 228 135.789 228H135.173ZM149.295 228.14C148.837 228.14 148.413 228.047 148.021 227.86C147.638 227.673 147.33 227.421 147.097 227.104C146.873 226.777 146.761 226.418 146.761 226.026C146.761 225.41 147.013 224.906 147.517 224.514C148.021 224.122 148.707 223.861 149.575 223.73L151.675 223.436V223.03C151.675 222.069 151.119 221.588 150.009 221.588C149.579 221.588 149.234 221.677 148.973 221.854C148.711 222.022 148.52 222.223 148.399 222.456C148.361 222.549 148.319 222.615 148.273 222.652C148.235 222.68 148.179 222.694 148.105 222.694H147.559C147.475 222.694 147.4 222.666 147.335 222.61C147.279 222.545 147.251 222.47 147.251 222.386C147.251 222.171 147.349 221.924 147.545 221.644C147.75 221.355 148.063 221.107 148.483 220.902C148.903 220.687 149.416 220.58 150.023 220.58C151.068 220.58 151.815 220.823 152.263 221.308C152.72 221.793 152.949 222.4 152.949 223.128V227.678C152.949 227.771 152.916 227.851 152.851 227.916C152.795 227.972 152.72 228 152.627 228H152.011C151.917 228 151.843 227.972 151.787 227.916C151.731 227.851 151.703 227.771 151.703 227.678V227.062C151.497 227.37 151.199 227.627 150.807 227.832C150.415 228.037 149.911 228.14 149.295 228.14ZM149.575 227.118C150.191 227.118 150.695 226.917 151.087 226.516C151.479 226.115 151.675 225.531 151.675 224.766V224.374L150.037 224.612C149.365 224.705 148.856 224.864 148.511 225.088C148.165 225.312 147.993 225.592 147.993 225.928C147.993 226.311 148.147 226.605 148.455 226.81C148.772 227.015 149.145 227.118 149.575 227.118ZM157.93 231.08C157.155 231.08 156.534 230.949 156.068 230.688C155.601 230.427 155.27 230.128 155.074 229.792C154.887 229.456 154.794 229.167 154.794 228.924C154.794 228.84 154.826 228.765 154.892 228.7C154.957 228.644 155.032 228.616 155.116 228.616H155.732C155.816 228.616 155.886 228.635 155.942 228.672C155.998 228.719 156.044 228.798 156.082 228.91C156.343 229.657 156.936 230.03 157.86 230.03C158.56 230.03 159.078 229.881 159.414 229.582C159.75 229.283 159.918 228.756 159.918 228V227.034C159.376 227.725 158.62 228.07 157.65 228.07C156.66 228.07 155.918 227.753 155.424 227.118C154.938 226.483 154.682 225.681 154.654 224.71L154.64 224.318L154.654 223.94C154.682 222.979 154.938 222.181 155.424 221.546C155.918 220.902 156.66 220.58 157.65 220.58C158.63 220.58 159.395 220.939 159.946 221.658V221.056C159.946 220.963 159.974 220.883 160.03 220.818C160.095 220.753 160.174 220.72 160.268 220.72H160.87C160.963 220.72 161.038 220.753 161.094 220.818C161.159 220.883 161.192 220.963 161.192 221.056V227.846C161.192 230.002 160.104 231.08 157.93 231.08ZM157.902 226.978C158.555 226.978 159.045 226.768 159.372 226.348C159.708 225.919 159.89 225.405 159.918 224.808C159.927 224.724 159.932 224.561 159.932 224.318C159.932 224.085 159.927 223.926 159.918 223.842C159.89 223.245 159.708 222.736 159.372 222.316C159.045 221.887 158.555 221.672 157.902 221.672C157.23 221.672 156.74 221.887 156.432 222.316C156.133 222.736 155.97 223.282 155.942 223.954L155.928 224.318L155.942 224.696C155.97 225.368 156.133 225.919 156.432 226.348C156.74 226.768 157.23 226.978 157.902 226.978ZM166.186 228.14C165.234 228.14 164.473 227.846 163.904 227.258C163.335 226.661 163.022 225.849 162.966 224.822L162.952 224.346L162.966 223.884C163.022 222.876 163.335 222.073 163.904 221.476C164.473 220.879 165.234 220.58 166.186 220.58C167.213 220.58 168.006 220.907 168.566 221.56C169.135 222.213 169.42 223.1 169.42 224.22V224.472C169.42 224.565 169.387 224.645 169.322 224.71C169.266 224.766 169.191 224.794 169.098 224.794H164.24V224.92C164.268 225.527 164.455 226.045 164.8 226.474C165.145 226.903 165.603 227.118 166.172 227.118C166.611 227.118 166.965 227.034 167.236 226.866C167.516 226.689 167.726 226.507 167.866 226.32C167.95 226.208 168.015 226.143 168.062 226.124C168.109 226.096 168.188 226.082 168.3 226.082H168.916C169 226.082 169.07 226.105 169.126 226.152C169.191 226.199 169.224 226.259 169.224 226.334C169.224 226.539 169.098 226.787 168.846 227.076C168.594 227.365 168.235 227.617 167.768 227.832C167.311 228.037 166.783 228.14 166.186 228.14ZM168.146 223.842V223.8C168.146 223.147 167.969 222.615 167.614 222.204C167.259 221.793 166.783 221.588 166.186 221.588C165.579 221.588 165.103 221.793 164.758 222.204C164.413 222.615 164.24 223.147 164.24 223.8V223.842H168.146ZM177.48 228.14C176.481 228.14 175.702 227.86 175.142 227.3C174.582 226.731 174.288 225.937 174.26 224.92L174.246 224.36L174.26 223.8C174.288 222.783 174.582 221.994 175.142 221.434C175.702 220.865 176.481 220.58 177.48 220.58C178.152 220.58 178.716 220.701 179.174 220.944C179.64 221.177 179.986 221.471 180.21 221.826C180.443 222.181 180.569 222.535 180.588 222.89C180.597 222.974 180.564 223.049 180.49 223.114C180.424 223.179 180.35 223.212 180.266 223.212H179.65C179.556 223.212 179.486 223.193 179.44 223.156C179.393 223.109 179.346 223.03 179.3 222.918C179.132 222.461 178.898 222.139 178.6 221.952C178.31 221.756 177.942 221.658 177.494 221.658C176.906 221.658 176.439 221.84 176.094 222.204C175.748 222.568 175.562 223.123 175.534 223.87L175.52 224.36L175.534 224.85C175.562 225.597 175.748 226.152 176.094 226.516C176.439 226.88 176.906 227.062 177.494 227.062C177.951 227.062 178.324 226.969 178.614 226.782C178.903 226.586 179.132 226.259 179.3 225.802C179.346 225.69 179.393 225.615 179.44 225.578C179.486 225.531 179.556 225.508 179.65 225.508H180.266C180.35 225.508 180.424 225.541 180.49 225.606C180.564 225.671 180.597 225.746 180.588 225.83C180.569 226.175 180.443 226.525 180.21 226.88C179.986 227.235 179.64 227.533 179.174 227.776C178.716 228.019 178.152 228.14 177.48 228.14ZM185.219 228.14C184.192 228.14 183.399 227.851 182.839 227.272C182.288 226.693 181.994 225.923 181.957 224.962L181.943 224.36L181.957 223.758C181.994 222.797 182.293 222.027 182.853 221.448C183.422 220.869 184.211 220.58 185.219 220.58C186.227 220.58 187.011 220.869 187.571 221.448C188.14 222.027 188.444 222.797 188.481 223.758C188.5 223.963 188.509 224.164 188.509 224.36C188.509 224.556 188.5 224.757 188.481 224.962C188.444 225.923 188.145 226.693 187.585 227.272C187.034 227.851 186.246 228.14 185.219 228.14ZM185.219 227.09C185.816 227.09 186.288 226.903 186.633 226.53C186.988 226.147 187.179 225.601 187.207 224.892C187.216 224.799 187.221 224.621 187.221 224.36C187.221 224.099 187.216 223.921 187.207 223.828C187.179 223.119 186.988 222.577 186.633 222.204C186.288 221.821 185.816 221.63 185.219 221.63C184.622 221.63 184.146 221.821 183.791 222.204C183.446 222.577 183.259 223.119 183.231 223.828L183.217 224.36L183.231 224.892C183.259 225.601 183.446 226.147 183.791 226.53C184.146 226.903 184.622 227.09 185.219 227.09ZM190.599 228C190.505 228 190.426 227.972 190.361 227.916C190.305 227.851 190.277 227.771 190.277 227.678V221.042C190.277 220.949 190.305 220.874 190.361 220.818C190.426 220.753 190.505 220.72 190.599 220.72H191.187C191.28 220.72 191.355 220.753 191.411 220.818C191.467 220.874 191.495 220.949 191.495 221.042V221.518C191.999 220.893 192.68 220.58 193.539 220.58C194.565 220.58 195.293 221.009 195.723 221.868C195.947 221.476 196.264 221.163 196.675 220.93C197.095 220.697 197.561 220.58 198.075 220.58C198.84 220.58 199.465 220.841 199.951 221.364C200.436 221.887 200.679 222.643 200.679 223.632V227.678C200.679 227.771 200.646 227.851 200.581 227.916C200.525 227.972 200.45 228 200.357 228H199.755C199.661 228 199.582 227.972 199.517 227.916C199.461 227.851 199.433 227.771 199.433 227.678V223.758C199.433 223.011 199.279 222.479 198.971 222.162C198.663 221.835 198.257 221.672 197.753 221.672C197.305 221.672 196.917 221.84 196.591 222.176C196.273 222.503 196.115 223.03 196.115 223.758V227.678C196.115 227.771 196.082 227.851 196.017 227.916C195.961 227.972 195.886 228 195.793 228H195.177C195.083 228 195.004 227.972 194.939 227.916C194.883 227.851 194.855 227.771 194.855 227.678V223.758C194.855 223.021 194.691 222.489 194.365 222.162C194.047 221.835 193.651 221.672 193.175 221.672C192.727 221.672 192.339 221.835 192.013 222.162C191.695 222.489 191.537 223.016 191.537 223.744V227.678C191.537 227.771 191.504 227.851 191.439 227.916C191.383 227.972 191.308 228 191.215 228H190.599ZM202.914 219.348C202.821 219.348 202.742 219.32 202.676 219.264C202.62 219.199 202.592 219.119 202.592 219.026V218.298C202.592 218.205 202.62 218.125 202.676 218.06C202.742 217.995 202.821 217.962 202.914 217.962H203.74C203.834 217.962 203.913 217.995 203.978 218.06C204.044 218.125 204.076 218.205 204.076 218.298V219.026C204.076 219.119 204.044 219.199 203.978 219.264C203.913 219.32 203.834 219.348 203.74 219.348H202.914ZM203.026 228C202.933 228 202.854 227.972 202.788 227.916C202.732 227.851 202.704 227.771 202.704 227.678V221.042C202.704 220.949 202.732 220.874 202.788 220.818C202.854 220.753 202.933 220.72 203.026 220.72H203.642C203.736 220.72 203.81 220.753 203.866 220.818C203.932 220.874 203.964 220.949 203.964 221.042V227.678C203.964 227.771 203.932 227.851 203.866 227.916C203.81 227.972 203.736 228 203.642 228H203.026ZM206.39 228C206.296 228 206.217 227.972 206.152 227.916C206.096 227.851 206.068 227.771 206.068 227.678V221.042C206.068 220.949 206.096 220.874 206.152 220.818C206.217 220.753 206.296 220.72 206.39 220.72H206.992C207.094 220.72 207.174 220.748 207.23 220.804C207.286 220.86 207.314 220.939 207.314 221.042V221.658C207.594 221.313 207.916 221.047 208.28 220.86C208.653 220.673 209.115 220.58 209.666 220.58C210.562 220.58 211.257 220.869 211.752 221.448C212.246 222.017 212.494 222.773 212.494 223.716V227.678C212.494 227.771 212.461 227.851 212.396 227.916C212.34 227.972 212.265 228 212.172 228H211.528C211.434 228 211.355 227.972 211.29 227.916C211.234 227.851 211.206 227.771 211.206 227.678V223.8C211.206 223.128 211.042 222.605 210.716 222.232C210.389 221.859 209.922 221.672 209.316 221.672C208.718 221.672 208.242 221.863 207.888 222.246C207.533 222.619 207.356 223.137 207.356 223.8V227.678C207.356 227.771 207.323 227.851 207.258 227.916C207.202 227.972 207.127 228 207.034 228H206.39ZM217.471 231.08C216.696 231.08 216.075 230.949 215.609 230.688C215.142 230.427 214.811 230.128 214.615 229.792C214.428 229.456 214.335 229.167 214.335 228.924C214.335 228.84 214.367 228.765 214.433 228.7C214.498 228.644 214.573 228.616 214.657 228.616H215.273C215.357 228.616 215.427 228.635 215.483 228.672C215.539 228.719 215.585 228.798 215.623 228.91C215.884 229.657 216.477 230.03 217.401 230.03C218.101 230.03 218.619 229.881 218.955 229.582C219.291 229.283 219.459 228.756 219.459 228V227.034C218.917 227.725 218.161 228.07 217.191 228.07C216.201 228.07 215.459 227.753 214.965 227.118C214.479 226.483 214.223 225.681 214.195 224.71L214.181 224.318L214.195 223.94C214.223 222.979 214.479 222.181 214.965 221.546C215.459 220.902 216.201 220.58 217.191 220.58C218.171 220.58 218.936 220.939 219.487 221.658V221.056C219.487 220.963 219.515 220.883 219.571 220.818C219.636 220.753 219.715 220.72 219.809 220.72H220.411C220.504 220.72 220.579 220.753 220.635 220.818C220.7 220.883 220.733 220.963 220.733 221.056V227.846C220.733 230.002 219.645 231.08 217.471 231.08ZM217.443 226.978C218.096 226.978 218.586 226.768 218.913 226.348C219.249 225.919 219.431 225.405 219.459 224.808C219.468 224.724 219.473 224.561 219.473 224.318C219.473 224.085 219.468 223.926 219.459 223.842C219.431 223.245 219.249 222.736 218.913 222.316C218.586 221.887 218.096 221.672 217.443 221.672C216.771 221.672 216.281 221.887 215.973 222.316C215.674 222.736 215.511 223.282 215.483 223.954L215.469 224.318L215.483 224.696C215.511 225.368 215.674 225.919 215.973 226.348C216.281 226.768 216.771 226.978 217.443 226.978ZM228.78 228.14C228.136 228.14 227.59 228.037 227.142 227.832C226.704 227.617 226.377 227.375 226.162 227.104C225.948 226.833 225.84 226.609 225.84 226.432C225.84 226.339 225.873 226.269 225.938 226.222C226.004 226.166 226.074 226.138 226.148 226.138H226.736C226.792 226.138 226.834 226.147 226.862 226.166C226.9 226.185 226.946 226.227 227.002 226.292C227.217 226.553 227.455 226.759 227.716 226.908C227.987 227.057 228.346 227.132 228.794 227.132C229.298 227.132 229.7 227.039 229.998 226.852C230.306 226.665 230.46 226.395 230.46 226.04C230.46 225.807 230.395 225.62 230.264 225.48C230.134 225.34 229.914 225.214 229.606 225.102C229.308 224.99 228.86 224.869 228.262 224.738C227.45 224.561 226.876 224.304 226.54 223.968C226.204 223.632 226.036 223.198 226.036 222.666C226.036 222.321 226.139 221.989 226.344 221.672C226.55 221.345 226.853 221.084 227.254 220.888C227.665 220.683 228.15 220.58 228.71 220.58C229.298 220.58 229.798 220.678 230.208 220.874C230.628 221.07 230.941 221.299 231.146 221.56C231.361 221.821 231.468 222.041 231.468 222.218C231.468 222.302 231.436 222.372 231.37 222.428C231.314 222.484 231.244 222.512 231.16 222.512H230.628C230.498 222.512 230.404 222.461 230.348 222.358C230.19 222.181 230.054 222.045 229.942 221.952C229.84 221.849 229.686 221.765 229.48 221.7C229.275 221.625 229.018 221.588 228.71 221.588C228.253 221.588 227.903 221.686 227.66 221.882C227.418 222.069 227.296 222.321 227.296 222.638C227.296 222.834 227.348 223.002 227.45 223.142C227.553 223.273 227.749 223.399 228.038 223.52C228.328 223.632 228.757 223.749 229.326 223.87C230.213 224.057 230.838 224.323 231.202 224.668C231.576 225.013 231.762 225.457 231.762 225.998C231.762 226.399 231.646 226.763 231.412 227.09C231.188 227.417 230.848 227.673 230.39 227.86C229.942 228.047 229.406 228.14 228.78 228.14ZM236.352 228.14C235.325 228.14 234.532 227.851 233.972 227.272C233.421 226.693 233.127 225.923 233.09 224.962L233.076 224.36L233.09 223.758C233.127 222.797 233.426 222.027 233.986 221.448C234.555 220.869 235.344 220.58 236.352 220.58C237.36 220.58 238.144 220.869 238.704 221.448C239.273 222.027 239.576 222.797 239.614 223.758C239.632 223.963 239.642 224.164 239.642 224.36C239.642 224.556 239.632 224.757 239.614 224.962C239.576 225.923 239.278 226.693 238.718 227.272C238.167 227.851 237.378 228.14 236.352 228.14ZM236.352 227.09C236.949 227.09 237.42 226.903 237.766 226.53C238.12 226.147 238.312 225.601 238.34 224.892C238.349 224.799 238.354 224.621 238.354 224.36C238.354 224.099 238.349 223.921 238.34 223.828C238.312 223.119 238.12 222.577 237.766 222.204C237.42 221.821 236.949 221.63 236.352 221.63C235.754 221.63 235.278 221.821 234.924 222.204C234.578 222.577 234.392 223.119 234.364 223.828L234.35 224.36L234.364 224.892C234.392 225.601 234.578 226.147 234.924 226.53C235.278 226.903 235.754 227.09 236.352 227.09ZM244.363 228.14C243.337 228.14 242.543 227.851 241.983 227.272C241.433 226.693 241.139 225.923 241.101 224.962L241.087 224.36L241.101 223.758C241.139 222.797 241.437 222.027 241.997 221.448C242.567 220.869 243.355 220.58 244.363 220.58C245.371 220.58 246.155 220.869 246.715 221.448C247.285 222.027 247.588 222.797 247.625 223.758C247.644 223.963 247.653 224.164 247.653 224.36C247.653 224.556 247.644 224.757 247.625 224.962C247.588 225.923 247.289 226.693 246.729 227.272C246.179 227.851 245.39 228.14 244.363 228.14ZM244.363 227.09C244.961 227.09 245.432 226.903 245.777 226.53C246.132 226.147 246.323 225.601 246.351 224.892C246.361 224.799 246.365 224.621 246.365 224.36C246.365 224.099 246.361 223.921 246.351 223.828C246.323 223.119 246.132 222.577 245.777 222.204C245.432 221.821 244.961 221.63 244.363 221.63C243.766 221.63 243.29 221.821 242.935 222.204C242.59 222.577 242.403 223.119 242.375 223.828L242.361 224.36L242.375 224.892C242.403 225.601 242.59 226.147 242.935 226.53C243.29 226.903 243.766 227.09 244.363 227.09ZM249.743 228C249.65 228 249.57 227.972 249.505 227.916C249.449 227.851 249.421 227.771 249.421 227.678V221.042C249.421 220.949 249.449 220.874 249.505 220.818C249.57 220.753 249.65 220.72 249.743 220.72H250.345C250.448 220.72 250.527 220.748 250.583 220.804C250.639 220.86 250.667 220.939 250.667 221.042V221.658C250.947 221.313 251.269 221.047 251.633 220.86C252.006 220.673 252.468 220.58 253.019 220.58C253.915 220.58 254.61 220.869 255.105 221.448C255.6 222.017 255.847 222.773 255.847 223.716V227.678C255.847 227.771 255.814 227.851 255.749 227.916C255.693 227.972 255.618 228 255.525 228H254.881C254.788 228 254.708 227.972 254.643 227.916C254.587 227.851 254.559 227.771 254.559 227.678V223.8C254.559 223.128 254.396 222.605 254.069 222.232C253.742 221.859 253.276 221.672 252.669 221.672C252.072 221.672 251.596 221.863 251.241 222.246C250.886 222.619 250.709 223.137 250.709 223.8V227.678C250.709 227.771 250.676 227.851 250.611 227.916C250.555 227.972 250.48 228 250.387 228H249.743ZM258.22 225.704C258.127 225.704 258.048 225.676 257.982 225.62C257.926 225.555 257.898 225.475 257.898 225.382V218.522C257.898 218.419 257.926 218.34 257.982 218.284C258.048 218.228 258.127 218.2 258.22 218.2H258.822C258.916 218.2 258.99 218.233 259.046 218.298C259.112 218.354 259.144 218.429 259.144 218.522V225.382C259.144 225.475 259.112 225.555 259.046 225.62C258.99 225.676 258.916 225.704 258.822 225.704H258.22ZM258.094 228C258.001 228 257.922 227.972 257.856 227.916C257.8 227.851 257.772 227.771 257.772 227.678V226.824C257.772 226.731 257.8 226.656 257.856 226.6C257.922 226.535 258.001 226.502 258.094 226.502H258.934C259.028 226.502 259.107 226.535 259.172 226.6C259.238 226.656 259.27 226.731 259.27 226.824V227.678C259.27 227.771 259.238 227.851 259.172 227.916C259.107 227.972 259.028 228 258.934 228H258.094Z" fill="#042F1A"/>
</g>
<defs>
<clipPath id="clip0_862_16868">
<path d="M0 8.00002C0 3.58174 3.58172 0 8 0H384C388.418 0 392 3.58172 392 8V688C392 692.418 388.418 696 384 696H8C3.58172 696 0 692.418 0 688V8.00002Z" fill="white"/>
</clipPath>
</defs>
</svg>